<svg width="69" height="69" viewBox="0 0 69 69" fill="none" xmlns="http://www.w3.org/2000/svg">
<path d="M14.375 11.5L8.625 17.25" stroke="#222222" stroke-width="2" stroke-linecap="round"/>
<path d="M54.625 11.5L60.375 17.25" stroke="#222222" stroke-width="2" stroke-linecap="round"/>
<path fill-rule="evenodd" clip-rule="evenodd" d="M34.5 57.5C47.2025 57.5 57.5 47.2025 57.5 34.5C57.5 21.7975 47.2025 11.5 34.5 11.5C21.7975 11.5 11.5 21.7975 11.5 34.5C11.5 47.2025 21.7975 57.5 34.5 57.5ZM41.0309 27.9372C41.3759 27.5059 41.306 26.8766 40.8747 26.5316C40.4434 26.1866 39.8141 26.2565 39.4691 26.6878L34.2919 33.1594L26.4297 27.9179C25.9702 27.6116 25.3493 27.7358 25.043 28.1953C24.7366 28.6548 24.8608 29.2757 25.3203 29.5821L33.7546 35.2049C34.2941 35.5646 35.019 35.452 35.4241 34.9457L41.0309 27.9372Z" fill="#59A9F3"/>
</svg>
