<svg width="34" height="34" viewBox="0 0 34 34" fill="none" xmlns="http://www.w3.org/2000/svg">
<path d="M14.602 10.2283C15.5116 7.96062 15.9664 6.8268 16.7053 6.66966C16.8996 6.62834 17.1004 6.62834 17.2947 6.66966C18.0336 6.8268 18.4884 7.96062 19.398 10.2283C19.9153 11.5178 20.1739 12.1626 20.6579 12.6012C20.7936 12.7242 20.941 12.8337 21.0978 12.9283C21.6572 13.2654 22.3555 13.328 23.752 13.453C26.1161 13.6647 27.2981 13.7706 27.6591 14.4446C27.7338 14.5842 27.7847 14.7353 27.8095 14.8917C27.9291 15.6468 27.0602 16.4374 25.3222 18.0186L24.8396 18.4576C24.0271 19.1969 23.6208 19.5665 23.3858 20.0278C23.2448 20.3045 23.1503 20.6024 23.106 20.9098C23.0322 21.4222 23.1512 21.9584 23.3891 23.0308L23.4741 23.4139C23.9008 25.3371 24.1142 26.2987 23.8479 26.7714C23.6086 27.1959 23.168 27.4677 22.6812 27.491C22.1393 27.5168 21.3757 26.8947 19.8486 25.6503C18.8425 24.8304 18.3394 24.4205 17.781 24.2604C17.2706 24.114 16.7294 24.114 16.219 24.2604C15.6606 24.4205 15.1575 24.8304 14.1514 25.6503C12.6243 26.8947 11.8607 27.5168 11.3188 27.491C10.832 27.4677 10.3914 27.1959 10.1521 26.7714C9.88582 26.2987 10.0992 25.3371 10.5259 23.414L10.6109 23.0308C10.8488 21.9584 10.9678 21.4222 10.8939 20.9098C10.8497 20.6024 10.7551 20.3045 10.6142 20.0278C10.3792 19.5665 9.97294 19.1969 9.16042 18.4576L8.6778 18.0186C6.93984 16.4374 6.07087 15.6468 6.19054 14.8917C6.21533 14.7353 6.26615 14.5842 6.34091 14.4446C6.70188 13.7706 7.88392 13.6647 10.248 13.453C11.6445 13.328 12.3428 13.2654 12.9021 12.9283C13.059 12.8337 13.2064 12.7242 13.3421 12.6012C13.8261 12.1626 14.0847 11.5178 14.602 10.2283Z" stroke="#AAAAAA" stroke-width="2"/>
</svg>
