<svg width="18" height="18" viewBox="0 0 18 18" fill="none" xmlns="http://www.w3.org/2000/svg">
<path fill-rule="evenodd" clip-rule="evenodd" d="M17.6402 9.20466C17.6402 8.56647 17.5829 7.95282 17.4765 7.36373H9.00009V10.8451H13.8438C13.6351 11.9701 13.001 12.9233 12.0479 13.5615V15.8197H14.9565C16.6584 14.2529 17.6402 11.9456 17.6402 9.20466Z" fill="#4285F4"/>
<path fill-rule="evenodd" clip-rule="evenodd" d="M9.00002 18C11.43 18 13.4673 17.1941 14.9564 15.8195L12.0478 13.5613C11.2419 14.1013 10.2109 14.4204 9.00002 14.4204C6.65591 14.4204 4.67179 12.8372 3.96406 10.7099H0.957209V13.0418C2.43813 15.9832 5.4818 18 9.00002 18Z" fill="#34A853"/>
<path fill-rule="evenodd" clip-rule="evenodd" d="M3.96413 10.7102C3.78413 10.1702 3.68186 9.59334 3.68186 9.00015C3.68186 8.40696 3.78413 7.83014 3.96413 7.29013V4.95829H0.957283C0.347731 6.1733 0 7.54786 0 9.00015C0 10.4524 0.347731 11.827 0.957283 13.042L3.96413 10.7102Z" fill="#FBBC05"/>
<path fill-rule="evenodd" clip-rule="evenodd" d="M9.00002 3.57958C10.3214 3.57958 11.5078 4.03368 12.4405 4.92551L15.0219 2.34412C13.4633 0.891828 11.426 0 9.00002 0C5.4818 0 2.43813 2.01684 0.957209 4.95823L3.96406 7.29008C4.67179 5.16278 6.65591 3.57958 9.00002 3.57958Z" fill="#EA4335"/>
</svg>
