<svg width="281" height="69" viewBox="0 0 281 69" fill="none" xmlns="http://www.w3.org/2000/svg">
<path d="M60.6456 60.6585C53.6628 56.3489 47.7427 59.7607 45.6555 62.0053C51.5756 52.4625 59.1909 55.0149 62.3533 57.3878C65.5158 59.7607 71.651 61.9411 75.2562 62.0053C73.2955 63.352 67.6283 64.9681 60.6456 60.6585Z" fill="#59A9F3"/>
<path d="M30.4884 62.8978C16.2862 54.522 4.24522 61.1528 0 65.5152C12.041 46.9688 27.5296 51.9295 33.9618 56.5412C40.394 61.1528 52.8723 65.3906 60.205 65.5152C56.2171 68.1327 44.6906 71.2736 30.4884 62.8978Z" fill="#59A9F3"/>
<path d="M86.0529 57.1885C84.9132 57.1885 83.9331 56.8477 83.1125 56.1662C82.2919 55.5301 81.6309 54.6668 81.1294 53.5764C80.7647 52.6677 80.4912 51.759 80.3088 50.8503C80.1721 49.9416 80.1037 49.0328 80.1037 48.1241C80.1037 46.9883 80.1721 45.8751 80.3088 44.7847C80.5368 43.0581 80.9243 41.1271 81.4713 38.9917C82.064 36.8562 82.7478 34.6753 83.5228 32.449C84.2978 30.2227 85.0956 28.11 85.9161 26.1108C86.4176 24.9749 86.9191 23.8845 87.4205 22.8395C87.922 21.749 88.4007 20.704 88.8566 19.7045C87.3066 21.6127 85.5286 23.7027 83.5228 25.9745C81.5625 28.2463 79.7162 30.3136 77.9839 32.1764C75.4765 34.948 73.0604 37.3333 70.7354 39.3324C68.456 41.2862 66.359 42.263 64.4443 42.263C62.2561 42.263 60.5693 41.5133 59.384 40.014C58.2444 38.4692 57.4466 36.4927 56.9907 34.0847C56.5348 31.6766 56.3069 29.1095 56.3069 26.3834C56.3069 24.7932 56.3525 23.2257 56.4436 21.6809C56.5348 20.0907 56.6488 18.5913 56.7855 17.1828C54.5973 20.1815 52.4547 23.4529 50.3577 26.9968C48.3062 30.4953 46.5283 33.9938 45.0239 37.4923C44.4313 38.8099 43.907 40.3547 43.4511 42.1267C43.0408 43.8987 42.8813 45.3526 42.9724 46.4885C43.1548 47.6698 43.4739 48.2605 43.9298 48.2605C44.2033 48.2605 44.4768 48.1241 44.7504 47.8515C44.9783 47.6244 45.2062 47.3517 45.4342 47.0337C45.6621 46.7157 45.7989 46.5566 45.8445 46.5566C45.9357 46.5566 45.9812 46.6248 45.9812 46.7611C46.0268 46.852 46.0496 46.8974 46.0496 46.8974C46.1408 47.6698 45.9129 48.3286 45.3658 48.8738C44.8643 49.4645 44.2945 49.7598 43.6563 49.7598C43.1092 49.7598 42.585 49.4645 42.0835 48.8738C41.6276 48.2832 41.3997 47.3517 41.3997 46.0796C41.3997 44.5802 41.7188 42.7628 42.357 40.6273C42.9952 38.4919 43.8842 36.1747 45.0239 33.6758C46.1636 31.1768 47.4401 28.6552 48.8533 26.1108C50.3121 23.521 51.7937 20.9994 53.2981 18.5459C54.8025 16.0924 56.0789 14.1386 57.1275 12.6847C56.4892 12.3212 55.6686 12.0713 54.6657 11.935C53.7084 11.7533 52.7282 11.6397 51.7253 11.5943C50.768 11.5488 49.9246 11.5261 49.1952 11.5261C48.5114 11.5261 48.1011 11.5261 47.9643 11.5261C45.5482 11.7079 43.2004 12.0032 40.921 12.4121C38.6872 12.7756 36.9777 13.2072 35.7924 13.707C34.6527 14.1614 33.7409 14.6612 33.0571 15.2064C32.3733 15.7062 32.0314 16.2514 32.0314 16.842C32.0314 17.6144 32.7152 18.3868 34.0828 19.1592C34.174 19.2501 34.2196 19.341 34.2196 19.4318C34.2196 19.5681 34.174 19.6817 34.0828 19.7726C33.9917 19.8635 33.8777 19.8862 33.7409 19.8408C32.8292 19.341 32.1453 18.773 31.6895 18.1369C31.2792 17.5009 31.074 16.8875 31.074 16.2968C31.074 15.5244 31.3932 14.7975 32.0314 14.1159C32.6696 13.4344 33.5586 12.8665 34.6983 12.4121C35.2909 12.1849 36.2027 11.935 37.4335 11.6624C38.71 11.3898 40.146 11.1399 41.7416 10.9128C43.3827 10.6856 45.0239 10.5038 46.6651 10.3675C48.3518 10.1858 49.879 10.0949 51.2466 10.0949C53.9363 10.0949 56.0789 10.2539 57.6745 10.572C59.3157 10.89 60.2274 11.4353 60.4098 12.2077V12.344C60.4098 12.5257 60.3642 12.7302 60.273 12.9573C60.1818 13.1391 60.0907 13.3435 59.9995 13.5707C59.9083 14.1614 59.8171 14.752 59.726 15.3427C59.6348 15.8879 59.5436 16.4331 59.4524 16.9783C59.2245 18.7503 59.0193 20.6132 58.837 22.5669C58.7002 24.4751 58.6319 26.3607 58.6319 28.2235C58.6319 30.4953 58.7686 32.5853 59.0421 34.4936C59.3157 36.4019 59.7715 37.9467 60.4098 39.128C61.0936 40.2639 61.9826 40.8318 63.0767 40.8318C64.5355 40.8318 66.4502 40.014 68.8207 38.3783C71.1913 36.7426 73.5619 34.7208 75.9324 32.3127C77.528 30.677 79.1464 28.9505 80.7875 27.1331C82.4287 25.3157 83.9787 23.5437 85.4375 21.8172C86.9419 20.0907 88.2411 18.5686 89.3352 17.251C90.4293 15.9333 91.2499 14.9338 91.797 14.2522C92.2984 13.6161 92.7999 13.0255 93.3014 12.4803C93.8484 11.935 94.2131 11.5943 94.3955 11.458C94.669 11.2762 95.0109 11.3217 95.4212 11.5943C95.8315 11.8669 96.1734 12.2077 96.4469 12.6166C96.7204 13.0255 96.766 13.3663 96.5837 13.6389C94.8969 16.0924 93.3697 18.3868 92.0021 20.5223C90.6345 22.6577 89.4036 24.7705 88.3095 26.8605C87.2154 28.9505 86.2125 31.1768 85.3007 33.5395C84.389 35.9021 83.5456 38.5828 82.7706 41.5815C82.1324 44.1259 81.8132 46.4885 81.8132 48.6694C81.8132 50.2596 81.9956 51.6681 82.3603 52.8948C82.725 54.0307 83.272 54.894 84.0015 55.4846C84.7764 56.0753 85.7566 56.2798 86.9419 56.098H87.147C87.6485 56.098 87.8992 56.257 87.8992 56.5751C87.8992 56.8931 87.6029 57.0749 87.0102 57.1203C86.8279 57.1657 86.6455 57.1885 86.4632 57.1885C86.3264 57.1885 86.1897 57.1885 86.0529 57.1885Z" fill="black"/>
<path d="M99.3851 55.357C97.5076 55.357 96.1338 54.9462 95.2637 54.1247C94.3935 53.2574 93.9586 52.1166 93.9586 50.7017C93.9586 50.3367 93.9814 49.9714 94.0273 49.6063C94.1187 49.1956 94.2105 48.7848 94.302 48.3741C94.5309 47.5526 94.8974 46.5941 95.401 45.4988C95.9506 44.4034 96.6147 43.3308 97.3931 42.2812C98.1714 41.2315 99.0188 40.3643 99.9346 39.6797C100.85 38.9951 101.812 38.6528 102.82 38.6528C103.644 38.6528 104.262 38.9493 104.674 39.5428C105.132 40.1362 105.361 40.8435 105.361 41.665C105.361 42.5323 105.086 43.4223 104.537 44.3349C104.033 45.2022 103.346 45.9095 102.476 46.4572C101.469 47.1418 100.324 47.4841 99.0416 47.4841C98.2173 47.4841 97.4617 47.3245 96.7748 47.0049C96.0879 48.3741 95.7445 49.7205 95.7445 51.044C95.7445 52.0024 96.0193 52.824 96.5688 53.5086C97.1183 54.1931 98.034 54.5354 99.3164 54.5354C100.873 54.5354 102.247 54.1704 103.438 53.4401C104.628 52.6643 105.727 51.6601 106.735 50.4279C107.788 49.1956 108.796 47.8721 109.757 46.4572C109.895 46.3203 109.986 46.2518 110.032 46.2518C110.169 46.2518 110.238 46.366 110.238 46.5941C110.238 46.8222 110.169 47.0506 110.032 47.2787C109.208 48.5567 108.269 49.8117 107.216 51.044C106.208 52.2763 105.064 53.3032 103.781 54.1247C102.499 54.9462 101.034 55.357 99.3851 55.357ZM98.3547 46.5257C99.5452 46.5257 100.667 46.1149 101.721 45.2934C102.224 44.9284 102.659 44.4946 103.026 43.9926C103.392 43.4907 103.644 42.9885 103.781 42.4865C103.919 41.9846 103.987 41.5508 103.987 41.1858C103.987 40.1362 103.598 39.6112 102.82 39.6112C102.316 39.6112 101.743 39.9078 101.102 40.5012C100.553 41.0031 99.9805 41.6423 99.3851 42.4181C98.8355 43.1938 98.3547 43.9469 97.9426 44.6772C97.5304 45.3618 97.2557 45.8638 97.1183 46.1834C97.4389 46.4115 97.8511 46.5257 98.3547 46.5257ZM108.991 55.0831C108.853 55.0831 108.716 54.9919 108.579 54.8093C108.212 54.3985 108.029 53.7366 108.029 52.824C108.029 51.8655 108.189 50.7929 108.51 49.6063C108.876 48.3741 109.288 47.256 109.746 46.2518C110.204 45.2934 110.617 44.4491 110.983 43.7188C111.395 42.9885 111.67 42.5323 111.807 42.3496C112.311 41.7108 112.837 41.1858 113.387 40.775C113.936 40.3643 114.486 40.1589 115.036 40.1589C115.31 40.1589 115.516 40.2274 115.654 40.3643C115.837 40.5012 115.86 40.6154 115.722 40.7066C115.356 40.8892 114.875 41.3912 114.28 42.2127C113.685 42.9885 113.066 43.9015 112.425 44.9511C112.013 45.6814 111.486 46.6626 110.845 47.8949C110.204 49.1271 109.838 50.1767 109.746 51.044C109.746 51.409 109.838 51.569 110.021 51.5232L111.738 48.7164C112.7 47.1191 113.959 45.5445 115.516 43.9926C117.073 42.4408 118.745 41.1631 120.531 40.1589C120.714 40.0677 120.897 39.9993 121.08 39.9535C121.309 39.9078 121.515 39.8851 121.698 39.8851C122.111 39.8851 122.317 40.022 122.317 40.2958C122.317 40.387 122.202 40.6154 121.973 40.9804C121.012 42.2584 120.256 43.6046 119.706 45.0195C119.157 46.3887 118.813 47.8949 118.676 49.5379C118.63 50.5421 118.722 51.4775 118.951 52.3447C119.226 53.1662 119.798 53.577 120.668 53.577C121.676 53.577 122.637 53.1662 123.553 52.3447C124.469 51.5232 125.316 50.5648 126.095 49.4694C126.919 48.3283 127.629 47.3245 128.224 46.4572C128.315 46.3203 128.384 46.2518 128.43 46.2518C128.567 46.2518 128.636 46.3887 128.636 46.6626C128.636 46.8907 128.545 47.1645 128.361 47.4841C127.674 48.4883 126.919 49.5606 126.095 50.7017C125.27 51.8428 124.355 52.8012 123.347 53.577C122.385 54.3528 121.286 54.7408 120.05 54.7408C118.905 54.7408 118.081 54.3074 117.577 53.4401C117.073 52.5728 116.821 51.5232 116.821 50.2909C116.821 48.9675 117.028 47.5526 117.44 46.0464C117.898 44.5403 118.424 43.2853 119.02 42.2812C117.829 43.1484 116.593 44.2438 115.31 45.5672C114.028 46.8452 112.929 48.2144 112.013 49.6748C111.693 50.2682 111.258 51.0213 110.708 51.934C110.159 52.8467 109.792 53.577 109.609 54.1247C109.563 54.3073 109.518 54.467 109.472 54.6039C109.426 54.6951 109.38 54.7866 109.334 54.8777C109.288 55.0147 109.174 55.0831 108.991 55.0831ZM128.537 55.2885C127.713 55.2885 127.117 55.0147 126.751 54.467C126.385 53.9193 126.201 53.2347 126.201 52.4132C126.201 51.7743 126.27 51.1582 126.408 50.5648C126.545 49.9259 126.98 48.876 127.713 47.4156C128.445 45.9095 129.247 44.3349 130.117 42.6919C129.659 42.8746 129.155 43.08 128.606 43.308C128.102 43.4907 127.735 43.6961 127.507 43.9242C127.323 44.0154 127.209 44.0611 127.163 44.0611C127.026 44.0611 126.957 43.9699 126.957 43.7873C126.957 43.3765 127.209 42.9885 127.713 42.6235C128.216 42.2584 128.697 42.0073 129.155 41.8704C129.659 41.7335 130.231 41.5738 130.872 41.3912C131.376 40.4785 131.903 39.5428 132.452 38.5843C133.048 37.5802 133.574 36.7132 134.032 35.9829C134.353 35.5264 134.81 34.956 135.406 34.2714C136.001 33.541 136.665 32.9479 137.398 32.4914C137.81 32.2176 138.36 32.0807 139.046 32.0807C139.55 32.0807 139.825 32.1718 139.871 32.3545C139.184 32.5372 138.474 32.9933 137.741 33.7237C137.054 34.454 136.39 35.2983 135.749 36.2567C135.108 37.2151 134.559 38.1278 134.101 38.9951C133.643 39.8166 133.299 40.4555 133.07 40.912C134.032 40.775 134.834 40.7066 135.475 40.7066C135.841 40.7066 136.161 40.7293 136.436 40.775C136.711 40.775 136.94 40.7978 137.123 40.8435C137.489 40.8892 137.673 41.0031 137.673 41.1858C137.673 41.3685 137.444 41.4596 136.986 41.4596C136.619 41.4596 136.184 41.4596 135.681 41.4596C135.223 41.4596 134.719 41.5054 134.169 41.5966C133.757 41.6423 133.322 41.7792 132.864 42.0073C132.452 42.2354 132.177 42.4865 132.04 42.7604C131.033 44.5861 130.14 46.343 129.361 48.0318C128.583 49.7205 128.148 50.9983 128.056 51.8655C127.919 53.3259 128.354 54.0562 129.361 54.0562C130.369 54.0562 131.376 53.6228 132.384 52.7555C133.437 51.8428 134.421 50.7929 135.337 49.6063C136.253 48.4198 136.986 47.4156 137.535 46.5941C137.719 46.4115 137.833 46.3203 137.879 46.3203C138.016 46.3203 138.085 46.4345 138.085 46.6626C138.085 46.8452 138.016 47.0506 137.879 47.2787C137.1 48.4652 136.207 49.6748 135.2 50.9071C134.192 52.1394 133.116 53.189 131.971 54.0562C130.872 54.8777 129.727 55.2885 128.537 55.2885ZM148.506 55.2885C147.682 55.2885 147.064 55.0147 146.652 54.467C146.285 53.9193 146.102 53.212 146.102 52.3447C146.102 51.7513 146.171 51.1582 146.308 50.5648C146.354 50.4736 146.423 50.2682 146.514 49.9486C146.606 49.5836 146.743 49.1729 146.926 48.7164C146.285 49.7205 145.461 50.8386 144.454 52.0709C143.492 53.2574 142.416 54.1474 141.225 54.7408C140.538 55.0604 139.851 55.22 139.164 55.22C138.249 55.22 137.516 54.8777 136.966 54.1931C136.417 53.4628 136.142 52.4589 136.142 51.1809C136.142 50.1313 136.371 49.0129 136.829 47.8264C137.287 46.5941 137.951 45.3391 138.821 44.0611C139.37 43.2396 140.08 42.4408 140.95 41.665C141.821 40.8892 142.759 40.2501 143.767 39.7481C144.774 39.2462 145.736 38.9951 146.652 38.9951C147.567 38.9951 148.346 39.2462 148.987 39.7481C149.628 40.2501 149.971 41.0031 150.017 42.0073C150.017 42.1442 149.949 42.2584 149.811 42.3496C149.72 42.3954 149.628 42.3269 149.537 42.1442C148.987 40.912 148.094 40.2958 146.858 40.2958C146.033 40.2958 145.163 40.6839 144.247 41.4596C143.332 42.19 142.439 43.1254 141.569 44.2665C140.698 45.4076 139.943 46.5484 139.302 47.6895C138.752 48.6936 138.34 49.6063 138.065 50.4279C137.837 51.2494 137.722 51.9567 137.722 52.5501C137.722 53.7824 138.203 54.3985 139.164 54.3985C139.668 54.3985 140.218 54.2389 140.813 53.9193C141.362 53.5997 142.027 53.0293 142.805 52.2078C143.629 51.3863 144.431 50.4736 145.209 49.4694C146.033 48.4652 146.766 47.4841 147.407 46.5257C148.094 45.5672 148.598 44.8142 148.918 44.2665C149.605 43.1254 150.315 42.1215 151.048 41.2543C151.781 40.387 152.513 39.9535 153.246 39.9535C153.612 39.9535 153.795 40.0447 153.795 40.2274C153.795 40.41 153.704 40.5924 153.521 40.775C152.605 41.8704 151.735 43.1711 150.91 44.6772C150.132 46.1376 149.468 47.5298 148.918 48.8533C148.415 50.1767 148.117 51.1809 148.025 51.8655C147.888 53.3259 148.323 54.0562 149.33 54.0562C149.468 54.0562 149.605 54.0562 149.743 54.0562C149.88 54.0105 150.04 53.9651 150.223 53.9193C151.185 53.5997 152.124 53.0066 153.04 52.1394C153.955 51.2721 154.803 50.3367 155.581 49.3325C156.36 48.2829 157.001 47.3699 157.505 46.5941C157.642 46.4115 157.757 46.3203 157.848 46.3203C157.985 46.3203 158.054 46.4345 158.054 46.6626C158.054 46.7995 157.985 46.9822 157.848 47.2103C157.527 47.6668 157.23 48.1229 156.955 48.5794C156.68 48.9902 156.406 49.3782 156.131 49.7433C156.039 49.9259 155.925 50.0856 155.787 50.2225C155.65 50.3594 155.513 50.519 155.375 50.7017C154.78 51.432 154.001 52.2305 153.04 53.0978C152.124 53.9193 151.208 54.5127 150.292 54.8777C149.605 55.1516 149.01 55.2885 148.506 55.2885ZM161.558 55.357C160.459 55.357 159.589 55.0147 158.948 54.3301C158.307 53.5997 157.872 52.687 157.643 51.5917C157.414 50.4963 157.323 49.3782 157.368 48.2371C157.506 46.2745 157.941 44.0384 158.674 41.5281C159.406 39.0178 160.345 36.4621 161.49 33.8606C162.68 31.2134 163.985 28.7261 165.405 26.3985C166.87 24.0709 168.404 22.0628 170.007 20.374C171.61 18.6853 173.19 17.5214 174.747 16.8826C175.251 16.6545 175.685 16.5176 176.052 16.4718C176.418 16.3807 176.762 16.3349 177.082 16.3349C178.181 16.3349 178.914 16.8599 179.28 17.9095C179.463 18.2745 179.555 18.731 179.555 19.2787C179.555 20.374 179.189 21.6521 178.456 23.1124C177.815 24.4359 176.899 25.942 175.709 27.6308C174.518 29.2738 173.167 30.9626 171.656 32.6968C170.19 34.3856 168.702 36.0286 167.191 37.6259C165.68 39.1777 164.283 40.5697 163.001 41.8019C161.719 43.0342 160.688 43.9699 159.91 44.6088C159.635 46.1149 159.498 47.5298 159.498 48.8533C159.498 50.2682 159.727 51.5005 160.185 52.5501C160.688 53.5997 161.513 54.1247 162.658 54.1247C163.757 54.1247 164.832 53.6912 165.886 52.824C166.939 51.9567 167.901 50.9298 168.771 49.7433C169.687 48.5567 170.442 47.5068 171.038 46.5941C171.221 46.4115 171.335 46.3203 171.381 46.3203C171.518 46.3203 171.587 46.4345 171.587 46.6626C171.587 46.8452 171.518 47.0506 171.381 47.2787C170.557 48.5567 169.641 49.8117 168.634 51.044C167.626 52.2763 166.527 53.3032 165.336 54.1247C164.146 54.9462 162.886 55.357 161.558 55.357ZM160.185 43.445C161.192 42.5323 162.497 41.2315 164.1 39.5428C165.749 37.854 167.443 35.9829 169.183 33.9291C170.969 31.8753 172.594 29.8672 174.06 27.9046C175.525 25.8966 176.602 24.1166 177.288 22.5648C177.563 22.0171 177.792 21.4237 177.975 20.7848C178.158 20.1459 178.25 19.5525 178.25 19.0048C178.25 18.0007 177.884 17.4987 177.151 17.4987C176.143 17.4987 174.792 18.2975 173.098 19.8948C171.221 21.629 169.412 23.8428 167.672 26.5354C165.932 29.1826 164.398 31.9895 163.07 34.956C161.787 37.877 160.826 40.7066 160.185 43.445ZM184.257 55.1516C183.937 55.1516 183.685 54.9689 183.502 54.6039C183.319 54.2389 183.227 53.8051 183.227 53.3032C183.227 52.5728 183.319 51.7743 183.502 50.9071C183.731 49.9944 183.96 49.1729 184.189 48.4425C184.418 47.6668 184.578 47.1418 184.67 46.868C185.311 45.1792 186.135 43.2623 187.142 41.1173C188.15 38.9266 189.341 36.8044 190.714 34.7506C192.134 32.651 193.691 30.8484 195.385 29.3423C197.08 27.7904 198.912 26.7865 200.88 26.33C201.11 26.2843 201.316 26.2616 201.499 26.2616C201.728 26.2158 201.934 26.1931 202.117 26.1931C202.85 26.1931 203.445 26.3528 203.903 26.6723C204.361 26.9462 204.658 27.3112 204.796 27.7677C204.796 27.8134 204.796 27.8589 204.796 27.9046C204.842 27.9504 204.864 28.0188 204.864 28.11C204.864 28.3381 204.796 28.4523 204.658 28.4523C204.429 28.4523 204.292 28.2927 204.246 27.9731C204.201 27.745 203.995 27.585 203.628 27.4939C203.262 27.3569 202.85 27.2885 202.392 27.2885C200.88 27.2885 199.346 27.9504 197.789 29.2738C196.278 30.5518 194.79 32.1949 193.325 34.2029C191.905 36.1655 190.6 38.1963 189.409 40.2958C188.265 42.3954 187.326 44.2665 186.593 45.9095C186.547 46.0007 186.41 46.343 186.181 46.9364C185.998 47.5298 185.792 48.2372 185.563 49.0587C185.334 49.8802 185.15 50.679 185.013 51.4548L186.868 48.7164C187.921 47.1645 189.203 45.613 190.714 44.0611C192.225 42.4638 193.874 41.1631 195.66 40.1589C195.843 40.0677 196.027 39.9993 196.21 39.9535C196.439 39.9078 196.645 39.8851 196.828 39.8851C197.24 39.8851 197.446 40.022 197.446 40.2958C197.446 40.387 197.332 40.6154 197.102 40.9804C196.141 42.2584 195.385 43.6046 194.836 45.0195C194.286 46.3887 193.943 47.8949 193.805 49.5379C193.76 50.5421 193.851 51.4775 194.08 52.3447C194.355 53.212 194.927 53.6455 195.797 53.6455C196.759 53.6455 197.698 53.2347 198.614 52.4132C199.575 51.5459 200.445 50.5648 201.224 49.4694C202.048 48.3283 202.758 47.3245 203.353 46.4572C203.445 46.3203 203.514 46.2518 203.559 46.2518C203.697 46.2518 203.765 46.3887 203.765 46.6626C203.765 46.9364 203.651 47.256 203.422 47.621C202.689 48.7164 201.888 49.8117 201.018 50.9071C200.193 52.0024 199.301 52.9151 198.339 53.6455C197.377 54.3758 196.324 54.7408 195.179 54.7408C194.035 54.7408 193.21 54.3074 192.706 53.4401C192.203 52.5728 191.951 51.5232 191.951 50.2909C191.951 48.9675 192.157 47.5526 192.569 46.0464C193.027 44.5403 193.554 43.2853 194.149 42.2812C192.958 43.1484 191.722 44.2438 190.44 45.5672C189.158 46.8452 188.059 48.2144 187.142 49.6748C186.822 50.2682 186.364 51.0213 185.769 51.934C185.174 52.8012 184.83 53.5313 184.738 54.1247C184.601 54.8093 184.441 55.1516 184.257 55.1516ZM207.719 55.357C205.841 55.357 204.468 54.9462 203.597 54.1247C202.727 53.2574 202.292 52.1166 202.292 50.7017C202.292 50.3367 202.315 49.9714 202.361 49.6063C202.453 49.1956 202.544 48.7848 202.636 48.3741C202.865 47.5526 203.231 46.5941 203.735 45.4988C204.284 44.4034 204.948 43.3308 205.727 42.2812C206.505 41.2315 207.353 40.3643 208.268 39.6797C209.184 38.9951 210.146 38.6528 211.153 38.6528C211.978 38.6528 212.596 38.9493 213.008 39.5428C213.466 40.1362 213.695 40.8435 213.695 41.665C213.695 42.5323 213.42 43.4223 212.871 44.3349C212.367 45.2022 211.68 45.9095 210.81 46.4572C209.802 47.1418 208.658 47.4841 207.375 47.4841C206.551 47.4841 205.796 47.3245 205.109 47.0049C204.422 48.3741 204.078 49.7205 204.078 51.044C204.078 52.0024 204.353 52.824 204.903 53.5086C205.452 54.1931 206.368 54.5354 207.65 54.5354C209.207 54.5354 210.581 54.1704 211.772 53.4401C212.962 52.6643 214.061 51.6601 215.069 50.4279C216.122 49.1956 217.129 47.8721 218.091 46.4572C218.228 46.3203 218.32 46.2518 218.366 46.2518C218.503 46.2518 218.572 46.366 218.572 46.5941C218.572 46.8222 218.503 47.0506 218.366 47.2787C217.542 48.5567 216.603 49.8117 215.549 51.044C214.542 52.2763 213.397 53.3032 212.115 54.1247C210.833 54.9462 209.367 55.357 207.719 55.357ZM206.689 46.5257C207.879 46.5257 209.001 46.1149 210.054 45.2934C210.558 44.9284 210.993 44.4946 211.359 43.9926C211.726 43.4907 211.978 42.9885 212.115 42.4865C212.252 41.9846 212.321 41.5508 212.321 41.1858C212.321 40.1362 211.932 39.6112 211.153 39.6112C210.65 39.6112 210.077 39.9078 209.436 40.5012C208.887 41.0031 208.314 41.6423 207.719 42.4181C207.169 43.1938 206.689 43.9469 206.276 44.6772C205.864 45.3618 205.589 45.8638 205.452 46.1834C205.773 46.4115 206.185 46.5257 206.689 46.5257ZM229.002 55.2885C228.178 55.2885 227.559 55.0147 227.147 54.467C226.781 53.9193 226.598 53.212 226.598 52.3447C226.598 51.7513 226.666 51.1582 226.804 50.5648C226.85 50.4736 226.918 50.2682 227.01 49.9486C227.102 49.5836 227.239 49.1729 227.422 48.7164C226.781 49.7205 225.957 50.8386 224.949 52.0709C223.988 53.2574 222.912 54.1474 221.721 54.7408C221.034 55.0604 220.347 55.22 219.66 55.22C218.744 55.22 218.012 54.8777 217.462 54.1931C216.913 53.4628 216.638 52.4589 216.638 51.1809C216.638 50.1313 216.867 49.0129 217.325 47.8264C217.783 46.5941 218.447 45.3391 219.317 44.0611C219.866 43.2396 220.576 42.4408 221.446 41.665C222.316 40.8892 223.255 40.2501 224.262 39.7481C225.27 39.2462 226.232 38.9951 227.147 38.9951C228.063 38.9951 228.842 39.2462 229.483 39.7481C230.124 40.2501 230.467 41.0031 230.513 42.0073C230.513 42.1442 230.444 42.2584 230.307 42.3496C230.216 42.3954 230.124 42.3269 230.032 42.1442C229.483 40.912 228.59 40.2958 227.353 40.2958C226.529 40.2958 225.659 40.6839 224.743 41.4596C223.827 42.19 222.934 43.1254 222.064 44.2665C221.194 45.4076 220.439 46.5484 219.797 47.6895C219.248 48.6936 218.836 49.6063 218.561 50.4279C218.332 51.2494 218.218 51.9567 218.218 52.5501C218.218 53.7824 218.698 54.3985 219.66 54.3985C220.164 54.3985 220.714 54.2389 221.309 53.9193C221.858 53.5997 222.522 53.0293 223.301 52.2078C224.125 51.3863 224.926 50.4736 225.705 49.4694C226.529 48.4652 227.262 47.4841 227.903 46.5257C228.59 45.5672 229.094 44.8142 229.414 44.2665C230.101 43.1254 230.811 42.1215 231.543 41.2543C232.276 40.387 233.009 39.9535 233.741 39.9535C234.108 39.9535 234.291 40.0447 234.291 40.2274C234.291 40.41 234.2 40.5924 234.016 40.775C233.101 41.8704 232.23 43.1711 231.406 44.6772C230.628 46.1376 229.964 47.5298 229.414 48.8533C228.91 50.1767 228.613 51.1809 228.521 51.8655C228.384 53.3259 228.819 54.0562 229.826 54.0562C229.964 54.0562 230.101 54.0562 230.238 54.0562C230.376 54.0105 230.536 53.9651 230.719 53.9193C231.681 53.5997 232.62 53.0066 233.535 52.1394C234.451 51.2721 235.299 50.3367 236.077 49.3325C236.856 48.2829 237.497 47.3699 238 46.5941C238.138 46.4115 238.252 46.3203 238.344 46.3203C238.481 46.3203 238.55 46.4345 238.55 46.6626C238.55 46.7995 238.481 46.9822 238.344 47.2103C238.023 47.6668 237.725 48.1229 237.451 48.5794C237.176 48.9902 236.901 49.3782 236.626 49.7433C236.535 49.9259 236.42 50.0856 236.283 50.2225C236.146 50.3594 236.008 50.519 235.871 50.7017C235.276 51.432 234.497 52.2305 233.535 53.0978C232.62 53.9193 231.704 54.5127 230.788 54.8777C230.101 55.1516 229.506 55.2885 229.002 55.2885ZM242.054 55.357C240.955 55.357 240.085 55.0147 239.444 54.3301C238.803 53.5997 238.368 52.687 238.139 51.5917C237.91 50.4963 237.818 49.3782 237.864 48.2371C238.001 46.2745 238.436 44.0384 239.169 41.5281C239.902 39.0178 240.841 36.4621 241.985 33.8606C243.176 31.2134 244.481 28.7261 245.901 26.3985C247.366 24.0709 248.9 22.0628 250.503 20.374C252.106 18.6853 253.686 17.5214 255.243 16.8826C255.746 16.6545 256.181 16.5176 256.548 16.4718C256.914 16.3807 257.257 16.3349 257.578 16.3349C258.677 16.3349 259.41 16.8599 259.776 17.9095C259.959 18.2745 260.051 18.731 260.051 19.2787C260.051 20.374 259.684 21.6521 258.952 23.1124C258.311 24.4359 257.395 25.942 256.204 27.6308C255.013 29.2738 253.663 30.9626 252.152 32.6968C250.686 34.3856 249.198 36.0286 247.687 37.6259C246.176 39.1777 244.779 40.5697 243.497 41.8019C242.214 43.0342 241.184 43.9699 240.406 44.6088C240.131 46.1149 239.993 47.5298 239.993 48.8533C239.993 50.2682 240.222 51.5005 240.68 52.5501C241.184 53.5997 242.008 54.1247 243.153 54.1247C244.252 54.1247 245.328 53.6912 246.382 52.824C247.435 51.9567 248.396 50.9298 249.267 49.7433C250.182 48.5567 250.938 47.5068 251.533 46.5941C251.716 46.4115 251.831 46.3203 251.877 46.3203C252.014 46.3203 252.083 46.4345 252.083 46.6626C252.083 46.8452 252.014 47.0506 251.877 47.2787C251.053 48.5567 250.136 49.8117 249.129 51.044C248.122 52.2763 247.023 53.3032 245.832 54.1247C244.641 54.9462 243.382 55.357 242.054 55.357ZM240.68 43.445C241.688 42.5323 242.993 41.2315 244.596 39.5428C246.244 37.854 247.938 35.9829 249.679 33.9291C251.465 31.8753 253.09 29.8672 254.556 27.9046C256.021 25.8966 257.097 24.1166 257.784 22.5648C258.059 22.0171 258.288 21.4237 258.471 20.7848C258.654 20.1459 258.746 19.5525 258.746 19.0048C258.746 18.0007 258.379 17.4987 257.647 17.4987C256.639 17.4987 255.288 18.2975 253.594 19.8948C251.716 21.629 249.908 23.8428 248.168 26.5354C246.427 29.1826 244.893 31.9895 243.565 34.956C242.283 37.877 241.321 40.7066 240.68 43.445ZM251.964 55.2885C251.139 55.2885 250.544 55.0147 250.178 54.467C249.811 53.9193 249.628 53.2347 249.628 52.4132C249.628 51.7743 249.697 51.1582 249.834 50.5648C249.972 49.9259 250.407 48.876 251.139 47.4156C251.872 45.9095 252.673 44.3349 253.544 42.6919C253.085 42.8746 252.582 43.08 252.032 43.308C251.529 43.4907 251.162 43.6961 250.933 43.9242C250.75 44.0154 250.636 44.0611 250.59 44.0611C250.452 44.0611 250.384 43.9699 250.384 43.7873C250.384 43.3765 250.636 42.9885 251.139 42.6235C251.643 42.2584 252.124 42.0073 252.582 41.8704C253.086 41.7335 253.658 41.5738 254.299 41.3912C254.803 40.4785 255.329 39.5428 255.879 38.5843C256.474 37.5802 257.001 36.7132 257.459 35.9829C257.779 35.5264 258.237 34.956 258.833 34.2714C259.428 33.541 260.092 32.9479 260.825 32.4914C261.237 32.2176 261.786 32.0807 262.473 32.0807C262.977 32.0807 263.252 32.1718 263.297 32.3545C262.611 32.5372 261.901 32.9933 261.168 33.7237C260.481 34.454 259.817 35.2983 259.176 36.2567C258.535 37.2151 257.986 38.1278 257.528 38.9951C257.07 39.8166 256.726 40.4555 256.497 40.912C257.459 40.775 258.26 40.7066 258.901 40.7066C259.268 40.7066 259.588 40.7293 259.863 40.775C260.138 40.775 260.367 40.7978 260.55 40.8435C260.916 40.8892 261.099 41.0031 261.099 41.1858C261.099 41.3685 260.871 41.4596 260.413 41.4596C260.046 41.4596 259.611 41.4596 259.107 41.4596C258.649 41.4596 258.146 41.5054 257.596 41.5966C257.184 41.6423 256.749 41.7792 256.291 42.0073C255.879 42.2354 255.604 42.4865 255.467 42.7604C254.459 44.5861 253.566 46.343 252.788 48.0318C252.01 49.7205 251.574 50.9983 251.483 51.8655C251.345 53.3259 251.78 54.0562 252.788 54.0562C253.795 54.0562 254.803 53.6228 255.81 52.7555C256.863 51.8428 257.848 50.7929 258.764 49.6063C259.68 48.4198 260.413 47.4156 260.962 46.5941C261.145 46.4115 261.26 46.3203 261.305 46.3203C261.443 46.3203 261.512 46.4345 261.512 46.6626C261.512 46.8452 261.443 47.0506 261.305 47.2787C260.527 48.4652 259.634 49.6748 258.627 50.9071C257.619 52.1394 256.543 53.189 255.398 54.0562C254.299 54.8777 253.154 55.2885 251.964 55.2885ZM260.393 55.1516C260.073 55.1516 259.821 54.9689 259.637 54.6039C259.455 54.2389 259.363 53.8051 259.363 53.3032C259.363 52.5728 259.455 51.7743 259.637 50.9071C259.867 49.9944 260.096 49.1729 260.324 48.4425C260.554 47.6668 260.714 47.1418 260.805 46.868C261.447 45.1792 262.271 43.2623 263.278 41.1173C264.286 38.9266 265.476 36.8044 266.85 34.7506C268.27 32.651 269.827 30.8484 271.521 29.3423C273.215 27.7904 275.047 26.7865 277.016 26.33C277.245 26.2843 277.451 26.2616 277.634 26.2616C277.863 26.2158 278.069 26.1931 278.252 26.1931C278.985 26.1931 279.581 26.3528 280.038 26.6723C280.496 26.9462 280.794 27.3112 280.931 27.7677C280.931 27.8134 280.931 27.8589 280.931 27.9046C280.977 27.9504 281 28.0188 281 28.11C281 28.3381 280.931 28.4523 280.794 28.4523C280.565 28.4523 280.428 28.2927 280.382 27.9731C280.336 27.745 280.13 27.585 279.764 27.4939C279.397 27.3569 278.985 27.2885 278.527 27.2885C277.016 27.2885 275.482 27.9504 273.925 29.2738C272.414 30.5518 270.926 32.1949 269.46 34.2029C268.041 36.1655 266.736 38.1963 265.545 40.2958C264.4 42.3954 263.461 44.2665 262.729 45.9095C262.683 46.0007 262.546 46.343 262.316 46.9364C262.133 47.5298 261.927 48.2372 261.698 49.0587C261.469 49.8802 261.286 50.679 261.149 51.4548L263.003 48.7164C264.057 47.1645 265.339 45.613 266.85 44.0611C268.361 42.4638 270.01 41.1631 271.796 40.1589C271.979 40.0677 272.162 39.9993 272.345 39.9535C272.574 39.9078 272.78 39.8851 272.963 39.8851C273.375 39.8851 273.582 40.022 273.582 40.2958C273.582 40.387 273.467 40.6154 273.238 40.9804C272.276 42.2584 271.521 43.6046 270.971 45.0195C270.422 46.3887 270.078 47.8949 269.941 49.5379C269.895 50.5421 269.987 51.4775 270.216 52.3447C270.49 53.212 271.063 53.6455 271.933 53.6455C272.895 53.6455 273.833 53.2347 274.749 52.4132C275.711 51.5459 276.581 50.5648 277.359 49.4694C278.184 48.3283 278.894 47.3245 279.489 46.4572C279.581 46.3203 279.649 46.2518 279.695 46.2518C279.832 46.2518 279.901 46.3887 279.901 46.6626C279.901 46.9364 279.787 47.256 279.558 47.621C278.825 48.7164 278.024 49.8117 277.153 50.9071C276.329 52.0024 275.436 52.9151 274.474 53.6455C273.513 54.3758 272.46 54.7408 271.315 54.7408C270.17 54.7408 269.346 54.3074 268.842 53.4401C268.338 52.5728 268.086 51.5232 268.086 50.2909C268.086 48.9675 268.292 47.5526 268.705 46.0464C269.163 44.5403 269.689 43.2853 270.284 42.2812C269.094 43.1484 267.857 44.2438 266.575 45.5672C265.293 46.8452 264.194 48.2144 263.278 49.6748C262.958 50.2682 262.5 51.0213 261.904 51.934C261.309 52.8012 260.966 53.5313 260.874 54.1247C260.737 54.8093 260.576 55.1516 260.393 55.1516Z" fill="black"/>
<path d="M97.9399 8.45175C100.281 8.45175 102.179 6.55976 102.179 4.22588C102.179 1.89199 100.281 0 97.9399 0C95.5985 0 93.7005 1.89199 93.7005 4.22588C93.7005 6.55976 95.5985 8.45175 97.9399 8.45175Z" fill="black"/>
<path d="M64.4444 10.5576C66.7858 10.5576 68.6839 8.66557 68.6839 6.33168C68.6839 3.99779 66.7858 2.1058 64.4444 2.1058C62.1031 2.1058 60.205 3.99779 60.205 6.33168C60.205 8.66557 62.1031 10.5576 64.4444 10.5576Z" fill="black"/>
</svg>
