<svg width="15" height="18" viewBox="0 0 15 18" fill="none" xmlns="http://www.w3.org/2000/svg">
<path d="M14.6856 14.0275C14.4163 14.6563 14.0975 15.2352 13.7282 15.7674C13.2248 16.4929 12.8125 16.9952 12.4949 17.274C12.0024 17.7318 11.4748 17.9662 10.9098 17.9796C10.5042 17.9796 10.015 17.8629 9.44563 17.6262C8.87436 17.3907 8.34937 17.274 7.86934 17.274C7.3659 17.274 6.82596 17.3907 6.24843 17.6262C5.67001 17.8629 5.20405 17.9862 4.84779 17.9985C4.30599 18.0218 3.76594 17.7807 3.22688 17.274C2.88282 16.9707 2.45248 16.4507 1.93694 15.7141C1.38381 14.9274 0.929063 14.0152 0.572805 12.9753C0.191265 11.852 0 10.7642 0 9.71115C0 8.50485 0.257878 7.46444 0.774403 6.59258C1.18035 5.89227 1.72039 5.33984 2.39631 4.9343C3.07222 4.52875 3.80254 4.32209 4.58904 4.30887C5.01938 4.30887 5.58372 4.44342 6.28503 4.70786C6.98435 4.97319 7.43339 5.10774 7.63026 5.10774C7.77744 5.10774 8.27627 4.95041 9.1219 4.63675C9.92159 4.34587 10.5965 4.22543 11.1494 4.27287C12.6477 4.39509 13.7733 4.99207 14.5218 6.0676C13.1819 6.88824 12.5191 8.03765 12.5322 9.51216C12.5443 10.6607 12.9565 11.6164 13.7667 12.3753C14.1338 12.7275 14.5438 12.9997 15 13.193C14.9011 13.483 14.7966 13.7608 14.6856 14.0275ZM11.2495 0.360103C11.2495 1.26031 10.9241 2.10083 10.2755 2.8788C9.49289 3.80366 8.54624 4.33809 7.51968 4.25376C7.5066 4.14577 7.49901 4.0321 7.49901 3.91266C7.49901 3.04847 7.87121 2.1236 8.53217 1.3674C8.86216 0.984528 9.28184 0.666171 9.79078 0.412211C10.2986 0.162041 10.779 0.0236918 11.2308 0C11.244 0.120343 11.2495 0.240694 11.2495 0.360091V0.360103Z" fill="black"/>
</svg>
