<svg width="32" height="4" viewBox="0 0 32 4" fill="none" xmlns="http://www.w3.org/2000/svg">
<path d="M0.831055 2.02246C0.831055 1.59408 0.947266 1.29329 1.17969 1.12012C1.41667 0.94694 1.7015 0.860352 2.03418 0.860352C2.35775 0.860352 2.63574 0.94694 2.86816 1.12012C3.10514 1.29329 3.22363 1.59408 3.22363 2.02246C3.22363 2.43262 3.10514 2.72884 2.86816 2.91113C2.63574 3.09342 2.35775 3.18457 2.03418 3.18457C1.7015 3.18457 1.41667 3.09342 1.17969 2.91113C0.947266 2.72884 0.831055 2.43262 0.831055 2.02246ZM4.82324 2.02246C4.82324 1.59408 4.93945 1.29329 5.17188 1.12012C5.40885 0.94694 5.69368 0.860352 6.02637 0.860352C6.34993 0.860352 6.62793 0.94694 6.86035 1.12012C7.09733 1.29329 7.21582 1.59408 7.21582 2.02246C7.21582 2.43262 7.09733 2.72884 6.86035 2.91113C6.62793 3.09342 6.34993 3.18457 6.02637 3.18457C5.69368 3.18457 5.40885 3.09342 5.17188 2.91113C4.93945 2.72884 4.82324 2.43262 4.82324 2.02246ZM8.81543 2.02246C8.81543 1.59408 8.93164 1.29329 9.16406 1.12012C9.40104 0.94694 9.68587 0.860352 10.0186 0.860352C10.3421 0.860352 10.6201 0.94694 10.8525 1.12012C11.0895 1.29329 11.208 1.59408 11.208 2.02246C11.208 2.43262 11.0895 2.72884 10.8525 2.91113C10.6201 3.09342 10.3421 3.18457 10.0186 3.18457C9.68587 3.18457 9.40104 3.09342 9.16406 2.91113C8.93164 2.72884 8.81543 2.43262 8.81543 2.02246ZM12.8076 2.02246C12.8076 1.59408 12.9238 1.29329 13.1562 1.12012C13.3932 0.94694 13.6781 0.860352 14.0107 0.860352C14.3343 0.860352 14.6123 0.94694 14.8447 1.12012C15.0817 1.29329 15.2002 1.59408 15.2002 2.02246C15.2002 2.43262 15.0817 2.72884 14.8447 2.91113C14.6123 3.09342 14.3343 3.18457 14.0107 3.18457C13.6781 3.18457 13.3932 3.09342 13.1562 2.91113C12.9238 2.72884 12.8076 2.43262 12.8076 2.02246ZM16.7998 2.02246C16.7998 1.59408 16.916 1.29329 17.1484 1.12012C17.3854 0.94694 17.6702 0.860352 18.0029 0.860352C18.3265 0.860352 18.6045 0.94694 18.8369 1.12012C19.0739 1.29329 19.1924 1.59408 19.1924 2.02246C19.1924 2.43262 19.0739 2.72884 18.8369 2.91113C18.6045 3.09342 18.3265 3.18457 18.0029 3.18457C17.6702 3.18457 17.3854 3.09342 17.1484 2.91113C16.916 2.72884 16.7998 2.43262 16.7998 2.02246ZM20.792 2.02246C20.792 1.59408 20.9082 1.29329 21.1406 1.12012C21.3776 0.94694 21.6624 0.860352 21.9951 0.860352C22.3187 0.860352 22.5967 0.94694 22.8291 1.12012C23.0661 1.29329 23.1846 1.59408 23.1846 2.02246C23.1846 2.43262 23.0661 2.72884 22.8291 2.91113C22.5967 3.09342 22.3187 3.18457 21.9951 3.18457C21.6624 3.18457 21.3776 3.09342 21.1406 2.91113C20.9082 2.72884 20.792 2.43262 20.792 2.02246ZM24.7842 2.02246C24.7842 1.59408 24.9004 1.29329 25.1328 1.12012C25.3698 0.94694 25.6546 0.860352 25.9873 0.860352C26.3109 0.860352 26.5889 0.94694 26.8213 1.12012C27.0583 1.29329 27.1768 1.59408 27.1768 2.02246C27.1768 2.43262 27.0583 2.72884 26.8213 2.91113C26.5889 3.09342 26.3109 3.18457 25.9873 3.18457C25.6546 3.18457 25.3698 3.09342 25.1328 2.91113C24.9004 2.72884 24.7842 2.43262 24.7842 2.02246ZM28.7764 2.02246C28.7764 1.59408 28.8926 1.29329 29.125 1.12012C29.362 0.94694 29.6468 0.860352 29.9795 0.860352C30.3031 0.860352 30.5811 0.94694 30.8135 1.12012C31.0505 1.29329 31.1689 1.59408 31.1689 2.02246C31.1689 2.43262 31.0505 2.72884 30.8135 2.91113C30.5811 3.09342 30.3031 3.18457 29.9795 3.18457C29.6468 3.18457 29.362 3.09342 29.125 2.91113C28.8926 2.72884 28.7764 2.43262 28.7764 2.02246Z" fill="#CCCCCC"/>
</svg>
