<svg width="30" height="30" viewBox="0 0 30 30" fill="none" xmlns="http://www.w3.org/2000/svg">
<mask id="mask0_110_576" style="mask-type:alpha" maskUnits="userSpaceOnUse" x="3" y="3" width="24" height="24">
<path d="M3.75 11.75C3.75 7.97876 3.75 6.09315 4.92157 4.92157C6.09315 3.75 7.97876 3.75 11.75 3.75H18.25C22.0212 3.75 23.9069 3.75 25.0784 4.92157C26.25 6.09315 26.25 7.97876 26.25 11.75V18.25C26.25 22.0212 26.25 23.9069 25.0784 25.0784C23.9069 26.25 22.0212 26.25 18.25 26.25H11.75C7.97876 26.25 6.09315 26.25 4.92157 25.0784C3.75 23.9069 3.75 22.0212 3.75 18.25V11.75Z" fill="#273B4A"/>
</mask>
<g mask="url(#mask0_110_576)">
<path d="M7.07232 15.4277L6.26935 16.2307C5.02866 17.4713 4.40831 18.0917 4.10362 18.8857C3.79893 19.6797 3.84504 20.5558 3.93726 22.308L4.375 30.625H26.25V24.1879C26.25 22.4333 26.25 21.556 25.904 20.7791C25.558 20.0022 24.9059 19.4153 23.6017 18.2415L22.8208 17.5387C21.4852 16.3367 20.8174 15.7357 20.0199 15.7566C19.2224 15.7776 18.5871 16.4129 17.3165 17.6835L17.0888 17.9112C16.1424 18.8576 15.6692 19.3308 15.1482 19.2304C14.6272 19.1301 14.3636 18.515 13.8363 17.2848L13.5773 16.6804C12.5229 14.22 11.9956 12.9898 10.9536 12.7891C9.91154 12.5885 8.96513 13.5349 7.07232 15.4277Z" fill="#59A9F3" stroke="#59A9F3"/>
</g>
<path d="M3.75 11.75C3.75 7.97876 3.75 6.09315 4.92157 4.92157C6.09315 3.75 7.97876 3.75 11.75 3.75H18.25C22.0212 3.75 23.9069 3.75 25.0784 4.92157C26.25 6.09315 26.25 7.97876 26.25 11.75V18.25C26.25 22.0212 26.25 23.9069 25.0784 25.0784C23.9069 26.25 22.0212 26.25 18.25 26.25H11.75C7.97876 26.25 6.09315 26.25 4.92157 25.0784C3.75 23.9069 3.75 22.0212 3.75 18.25V11.75Z" stroke="#59A9F3" stroke-width="1.2"/>
<circle cx="20.625" cy="9.375" r="1.875" fill="white"/>
</svg>
