<svg width="425" height="330" viewBox="0 0 425 330" fill="none" xmlns="http://www.w3.org/2000/svg">
<path d="M292.883 292.945C259.16 272.132 230.569 288.609 220.489 299.449C249.08 253.363 285.857 265.69 301.13 277.149C316.403 288.609 346.032 299.139 363.443 299.449C353.974 305.953 326.605 313.758 292.883 292.945Z" fill="#59A9F3"/>
<path d="M147.241 303.76C78.6529 263.309 20.5019 295.332 0 316.4C58.1509 226.832 132.952 250.789 164.015 273.061C195.079 295.332 255.342 315.798 290.755 316.4C271.495 329.041 215.829 344.21 147.241 303.76Z" fill="#59A9F3"/>
<path d="M346.585 276.187C341.081 276.187 336.347 274.541 332.384 271.25C328.422 268.178 325.229 264.009 322.807 258.742C321.046 254.354 319.725 249.965 318.844 245.577C318.184 241.188 317.854 236.8 317.854 232.411C317.854 226.926 318.184 221.55 318.844 216.284C319.945 207.946 321.817 198.62 324.459 188.307C327.321 177.994 330.623 167.462 334.366 156.71C338.109 145.958 341.961 135.755 345.924 126.1C348.346 120.614 350.768 115.348 353.19 110.301C355.612 105.035 357.923 99.9884 360.125 95.1611C352.639 104.377 344.053 114.47 334.366 125.442C324.899 136.413 315.982 146.397 307.616 155.393C295.507 168.778 283.839 180.298 272.61 189.953C261.602 199.388 251.475 204.106 242.228 204.106C231.66 204.106 223.514 200.485 217.79 193.244C212.286 185.784 208.433 176.239 206.232 164.609C204.03 152.98 202.929 140.582 202.929 127.417C202.929 119.737 203.149 112.167 203.59 104.706C204.03 97.0262 204.58 89.7852 205.241 82.983C194.673 97.4651 184.325 113.264 174.198 130.379C164.291 147.275 155.704 164.17 148.439 181.066C145.577 187.429 143.045 194.89 140.843 203.447C138.862 212.005 138.091 219.027 138.532 224.512C139.412 230.217 140.953 233.07 143.155 233.07C144.476 233.07 145.797 232.411 147.118 231.095C148.219 229.998 149.32 228.681 150.42 227.145C151.521 225.609 152.182 224.841 152.402 224.841C152.842 224.841 153.062 225.17 153.062 225.829C153.283 226.268 153.393 226.487 153.393 226.487C153.833 230.217 152.732 233.399 150.09 236.032C147.668 238.885 144.916 240.311 141.834 240.311C139.192 240.311 136.66 238.885 134.238 236.032C132.037 233.179 130.936 228.681 130.936 222.537C130.936 215.296 132.477 206.519 135.559 196.206C138.642 185.893 142.935 174.703 148.439 162.634C153.943 150.566 160.108 138.388 166.933 126.1C173.978 113.593 181.133 101.415 188.398 89.5658C195.664 77.7168 201.828 68.2815 206.892 61.2599C203.81 59.5045 199.847 58.2977 195.003 57.6394C190.38 56.7617 185.646 56.2131 180.803 55.9937C176.179 55.7743 172.106 55.6646 168.584 55.6646C165.281 55.6646 163.3 55.6646 162.639 55.6646C150.971 56.5423 139.632 57.9685 128.624 59.9434C117.836 61.6988 109.58 63.7833 103.856 66.197C98.3521 68.3912 93.9488 70.8049 90.6464 73.438C87.344 75.8517 85.6927 78.4848 85.6927 81.3373C85.6927 85.0675 88.9952 88.7977 95.6 92.528C96.0404 92.9668 96.2605 93.4057 96.2605 93.8445C96.2605 94.5028 96.0404 95.0514 95.6 95.4902C95.1597 95.9291 94.6093 96.0388 93.9488 95.8194C89.5456 93.4057 86.2431 90.6629 84.0415 87.5909C82.0601 84.519 81.0693 81.5567 81.0693 78.7042C81.0693 74.974 82.6105 71.4632 85.6927 68.1718C88.775 64.8804 93.0682 62.1376 98.5722 59.9434C101.434 58.8462 105.838 57.6394 111.782 56.3228C117.946 55.0063 124.882 53.7995 132.587 52.7023C140.513 51.6052 148.439 50.7275 156.365 50.0692C164.511 49.1915 171.886 48.7527 178.491 48.7527C191.481 48.7527 201.828 49.5207 209.534 51.0566C217.46 52.5926 221.863 55.2257 222.744 58.9559V59.6142C222.744 60.4919 222.524 61.4793 222.083 62.5765C221.643 63.4542 221.203 64.4416 220.762 65.5387C220.322 68.3912 219.882 71.2438 219.441 74.0963C219.001 76.7294 218.561 79.3625 218.12 81.9956C217.019 90.5532 216.029 99.5496 215.148 108.985C214.488 118.201 214.157 127.307 214.157 136.303C214.157 147.275 214.818 157.368 216.139 166.584C217.46 175.8 219.661 183.26 222.744 188.965C226.046 194.451 230.339 197.194 235.623 197.194C242.668 197.194 251.915 193.244 263.364 185.345C274.812 177.445 286.26 167.681 297.709 156.052C305.415 148.152 313.23 139.814 321.156 131.037C329.082 122.26 336.568 113.702 343.613 105.364C350.878 97.0262 357.153 89.6755 362.437 83.3121C367.72 76.9488 371.683 72.1215 374.325 68.8301C376.747 65.7581 379.169 62.9056 381.591 60.2725C384.233 57.6394 385.994 55.9937 386.875 55.3354C388.196 54.4577 389.847 54.6772 391.828 55.9937C393.81 57.3103 395.461 58.9559 396.782 60.9308C398.103 62.9056 398.323 64.5513 397.442 65.8678C389.296 77.7168 381.921 88.7978 375.316 99.1107C368.711 109.424 362.767 119.627 357.483 129.721C352.199 139.814 347.355 150.566 342.952 161.976C338.549 173.386 334.476 186.332 330.733 200.814C327.651 213.102 326.11 224.512 326.11 235.045C326.11 242.724 326.99 249.527 328.752 255.451C330.513 260.937 333.155 265.106 336.678 267.958C340.42 270.811 345.154 271.798 350.878 270.921H351.869C354.291 270.921 355.501 271.689 355.501 273.225C355.501 274.761 354.07 275.638 351.208 275.858C350.328 276.077 349.447 276.187 348.566 276.187C347.906 276.187 347.245 276.187 346.585 276.187Z" fill="black"/>
<path d="M403.992 40.817C415.3 40.817 424.466 31.6798 424.466 20.4085C424.466 9.1372 415.3 0 403.992 0C392.685 0 383.518 9.1372 383.518 20.4085C383.518 31.6798 392.685 40.817 403.992 40.817Z" fill="black"/>
<path d="M242.228 50.9867C253.536 50.9867 262.702 41.8495 262.702 30.5782C262.702 19.3069 253.536 10.1697 242.228 10.1697C230.921 10.1697 221.754 19.3069 221.754 30.5782C221.754 41.8495 230.921 50.9867 242.228 50.9867Z" fill="black"/>
</svg>
